<?xml version="1.0" standalone="no"?>
<!DOCTYPE svg PUBLIC "-//W3C//DTD SVG 20010904//EN"
 "http://www.w3.org/TR/2001/REC-SVG-20010904/DTD/svg10.dtd">
<svg version="1.0" xmlns="http://www.w3.org/2000/svg"
 width="1280.000000pt" height="1280.000000pt" viewBox="0 0 1280.000000 1280.000000"
 preserveAspectRatio="xMidYMid meet">
<metadata>
Created by potrace 1.14, written by Peter Selinger 2001-2017
</metadata>
<g transform="translate(0.000000,1280.000000) scale(0.100000,-0.100000)"
fill="#000000" stroke="none">
<path d="M4909 10876 c-2 -2 -20 -6 -40 -9 -19 -2 -46 -10 -60 -17 -13 -8 -26
-13 -29 -12 -3 1 -27 -9 -55 -23 -54 -27 -93 -61 -302 -266 -76 -74 -150 -143
-165 -153 -27 -17 -117 -18 -1835 -20 -995 -2 -1818 -5 -1831 -9 -13 -3 -32
-9 -42 -12 -10 -3 -28 -8 -41 -10 -40 -8 -151 -65 -213 -109 -101 -73 -174
-160 -227 -271 -18 -38 -34 -74 -35 -80 -1 -5 -9 -39 -18 -75 -14 -59 -15
-388 -13 -3315 2 -3189 2 -3251 21 -3295 58 -134 186 -241 320 -266 21 -4 421
-7 888 -7 466 0 848 -3 849 -6 2 -14 7 -39 19 -81 7 -25 13 -50 14 -57 1 -7 5
-16 9 -19 4 -4 7 -14 7 -22 0 -14 29 -82 72 -167 24 -47 106 -173 128 -195 8
-9 33 -36 54 -60 79 -89 202 -184 319 -249 60 -33 219 -98 259 -105 13 -3 23
-5 23 -6 0 -3 31 -9 130 -24 100 -16 323 -16 390 0 17 3 39 8 50 9 11 2 20 4
20 5 0 1 10 3 22 6 79 15 323 114 331 136 2 4 8 8 12 8 9 0 91 53 123 80 10 8
28 23 40 33 83 69 223 230 251 287 4 8 12 24 19 35 17 27 61 109 62 115 0 3
11 32 24 65 12 33 25 67 27 75 2 8 8 33 14 55 6 22 12 49 13 60 2 20 9 20
2271 20 l2268 0 23 -90 c55 -216 152 -382 320 -550 97 -97 188 -166 290 -218
83 -42 215 -99 215 -92 0 3 12 0 26 -5 78 -30 186 -44 339 -44 172 0 264 13
405 59 99 33 310 140 310 157 0 4 5 8 11 8 26 0 179 142 255 237 22 26 42 50
47 51 4 2 7 8 7 14 0 5 13 28 28 51 33 48 111 207 115 234 1 10 5 23 9 28 3 6
13 44 23 86 l18 76 441 1 c243 0 450 3 461 5 201 45 336 165 389 347 15 49 16
156 13 1020 -1 531 -6 974 -9 985 -4 11 -11 41 -17 67 -27 119 -113 289 -190
378 -40 47 -135 140 -142 140 -4 0 -14 6 -21 13 -54 52 -162 107 -382 193
-314 123 -489 191 -529 205 -21 7 -42 18 -46 24 -5 5 -47 100 -96 210 -81 185
-204 466 -245 560 -10 22 -50 114 -90 205 -40 91 -77 171 -82 178 -6 6 -7 12
-3 12 4 0 2 7 -5 15 -7 8 -9 15 -5 15 4 0 3 6 -3 13 -5 6 -30 59 -55 117 -25
58 -56 128 -68 155 -12 28 -23 52 -24 55 0 3 -8 21 -17 40 -8 19 -25 55 -35
80 -97 220 -123 274 -162 335 -120 186 -311 322 -536 380 -5 1 -12 3 -15 5
-43 18 -189 22 -850 25 -415 2 -757 4 -760 4 -4 1 -5 215 -1 256 1 7 441 10
1369 10 964 -1 1385 2 1428 10 126 23 244 108 301 215 27 50 50 123 51 160 0
8 1 31 2 50 1 19 -1 44 -3 55 -3 11 -8 34 -12 50 -13 49 -43 103 -133 235 -48
69 -121 177 -164 240 -42 63 -81 120 -86 125 -8 10 -173 252 -273 400 -120
178 -280 298 -454 341 -16 4 -37 10 -45 13 -17 6 -5474 13 -5481 7z m5438
-404 c18 -6 47 -19 65 -29 36 -20 126 -103 112 -103 -5 0 -4 -4 1 -8 15 -10
105 -141 105 -152 0 -4 4 -10 8 -12 7 -3 152 -212 177 -256 6 -9 13 -19 16
-22 3 -3 63 -90 134 -195 70 -104 143 -210 160 -235 26 -35 31 -50 24 -67 l-8
-23 -1491 0 c-1449 0 -1492 -1 -1528 -19 -84 -44 -127 -119 -122 -216 5 -101
3 -245 -3 -245 -5 0 -5 -6 -1 -12 12 -20 11 -468 -1 -468 -7 0 -7 -3 0 -8 12
-8 14 -222 2 -222 -5 0 -5 -5 -1 -12 10 -16 11 -309 1 -315 -4 -2 -4 -10 0
-16 10 -16 10 -297 0 -297 -5 0 -5 -5 -1 -12 10 -16 11 -309 1 -315 -4 -2 -4
-10 0 -16 12 -19 10 -381 -2 -389 -6 -5 -6 -8 0 -8 8 0 13 -200 5 -220 -1 -3
-1 -9 0 -15 7 -28 4 -235 -3 -235 -4 0 -5 -6 -1 -12 12 -20 11 -468 -1 -468
-7 0 -7 -3 0 -8 12 -8 14 -222 2 -222 -5 0 -5 -5 -1 -12 10 -16 11 -309 1
-315 -4 -2 -4 -10 0 -16 10 -16 10 -297 0 -297 -5 0 -5 -5 -1 -12 10 -16 11
-309 1 -315 -4 -2 -4 -10 0 -16 12 -19 10 -381 -2 -389 -6 -5 -6 -8 0 -8 8 0
13 -200 5 -220 -1 -3 -1 -9 0 -15 7 -28 4 -235 -3 -235 -4 0 -5 -6 -1 -12 12
-20 11 -427 -1 -432 -15 -6 -3447 -5 -3468 1 -10 2 -16 10 -14 16 2 7 -2 29
-9 50 -7 20 -11 37 -9 37 8 0 -39 119 -90 230 -17 38 -93 162 -103 170 -4 3
-19 21 -33 40 -44 59 -157 168 -219 211 -19 13 -40 31 -47 39 -7 8 -13 11 -13
6 0 -4 -15 2 -32 16 -18 13 -55 35 -83 48 -27 14 -53 30 -57 35 -4 6 -8 6 -8
2 0 -5 -12 -1 -27 7 -29 15 -141 53 -184 61 -13 3 -49 10 -79 17 -30 6 -122
12 -205 14 -126 2 -169 -2 -265 -22 -112 -23 -233 -63 -277 -90 -13 -8 -23
-12 -23 -9 0 4 -13 -3 -29 -14 -16 -12 -32 -21 -36 -21 -4 0 -46 -27 -95 -60
-145 -100 -277 -241 -363 -387 -59 -101 -125 -274 -141 -368 -1 -5 -5 -15 -9
-21 -10 -16 -1654 -17 -1664 -1 -5 7 -8 209 -9 449 l-1 438 156 2 156 3 1 193
c1 105 -2 192 -5 193 -3 1 -71 2 -151 4 -80 1 -148 3 -151 4 -6 1 -4 5099 3
5121 3 8 10 28 16 43 7 16 12 33 12 38 0 5 5 9 10 9 6 0 10 5 10 11 0 10 38
49 82 84 21 17 80 42 118 51 19 4 843 8 1830 10 987 1 1805 4 1818 8 12 3 32
8 45 11 12 3 51 19 86 37 66 33 108 71 345 301 76 75 148 137 160 139 12 2
1225 3 2696 2 1872 -1 2685 -4 2707 -12z m-432 -2171 c74 -18 184 -74 230
-118 51 -49 97 -103 89 -103 -4 0 0 -8 8 -17 8 -10 27 -47 43 -83 15 -36 37
-85 48 -110 11 -25 27 -63 37 -85 32 -75 48 -110 68 -155 11 -25 32 -73 46
-107 14 -35 38 -89 52 -120 14 -32 33 -74 41 -93 8 -19 23 -53 33 -75 10 -22
25 -56 33 -75 8 -19 24 -55 35 -80 79 -180 147 -336 148 -340 0 -3 13 -32 28
-65 15 -33 45 -103 68 -155 22 -52 48 -111 58 -132 17 -33 17 -36 2 -40 -14
-3 -2557 -2 -2572 1 -4 1 -5 1896 -1 1951 1 13 88 15 728 14 517 -1 743 -5
778 -13z m1422 -2376 c38 -15 79 -32 93 -38 14 -5 32 -11 40 -13 8 -2 23 -7
35 -13 24 -12 60 -26 305 -120 102 -40 193 -76 202 -81 10 -6 22 -10 27 -10
22 0 130 -72 177 -117 89 -86 153 -205 170 -318 11 -78 11 -595 -1 -596 -5 -1
-75 -3 -155 -4 -80 -2 -148 -3 -152 -4 -4 -1 -3 -14 2 -31 5 -16 5 -30 1 -30
-4 0 -5 -23 -1 -50 4 -28 4 -52 2 -55 -7 -7 -6 -94 1 -102 4 -3 2 -13 -3 -23
-5 -10 -6 -20 -3 -24 4 -4 6 -22 5 -41 l-3 -34 158 -3 157 -3 0 -407 c1 -225
-2 -421 -6 -437 -5 -18 -18 -32 -35 -39 -40 -16 -863 -14 -864 2 0 6 -2 18 -4
26 -2 8 -7 28 -10 44 -3 16 -10 37 -16 48 -5 10 -8 18 -5 18 14 0 -98 250
-116 258 -5 2 -8 8 -8 13 0 31 -187 248 -272 315 -38 30 -118 83 -159 106 -25
14 -54 31 -65 37 -25 14 -95 43 -113 47 -7 1 -18 7 -24 13 -6 6 -21 11 -34 11
-13 0 -31 5 -41 10 -72 42 -405 62 -559 33 -324 -59 -597 -225 -790 -482 -39
-51 -136 -215 -139 -233 -1 -5 -3 -10 -4 -13 -1 -3 -3 -8 -5 -12 -1 -5 -7 -20
-13 -35 -17 -41 -45 -139 -56 -198 -3 -13 -47 -15 -326 -15 l-324 0 0 1309
c-1 1220 0 1309 16 1315 9 3 654 5 1432 5 l1416 -2 67 -27z m-7903 -2000 c14
-3 38 -8 54 -11 47 -9 144 -43 158 -55 8 -6 14 -9 14 -5 0 3 18 -5 40 -19 22
-14 44 -25 50 -25 5 0 10 -4 10 -8 0 -5 11 -14 24 -20 46 -20 157 -135 210
-216 50 -78 97 -178 111 -241 4 -16 10 -41 13 -55 9 -34 8 -247 0 -290 -21
-103 -106 -300 -129 -300 -5 0 -8 -3 -7 -7 6 -18 -105 -133 -187 -195 -104
-78 -272 -143 -396 -154 -28 -2 -55 -7 -61 -10 -7 -5 -8 -2 -3 5 5 10 3 11
-11 4 -15 -8 -79 -11 -79 -4 0 1 -20 4 -45 7 -69 7 -91 11 -147 28 -29 9 -55
17 -58 16 -11 0 -160 83 -163 91 -2 5 -9 9 -16 9 -16 0 -152 131 -194 186 -57
74 -110 195 -138 309 -8 34 -11 253 -4 300 2 17 8 36 13 43 5 6 7 12 4 12 -4
0 1 19 9 43 9 23 17 47 18 52 1 6 17 39 35 75 37 73 89 144 151 207 44 44 176
140 201 145 8 2 16 6 19 9 18 20 179 69 250 76 24 2 46 5 47 7 5 5 177 -2 207
-9z m6976 -1 c19 -3 42 -7 50 -8 9 -1 21 -5 28 -10 6 -4 16 -5 21 -1 5 3 12 1
15 -4 3 -5 18 -12 33 -16 35 -8 153 -68 195 -97 78 -56 159 -135 195 -193 15
-22 29 -42 33 -45 24 -17 94 -185 105 -255 2 -11 4 -20 5 -20 3 0 11 -91 12
-135 2 -56 -13 -188 -25 -220 -33 -96 -44 -123 -70 -170 -68 -127 -185 -247
-313 -320 -40 -23 -79 -43 -87 -44 -8 -1 -22 -8 -31 -15 -9 -7 -16 -11 -16 -8
0 4 -19 0 -41 -9 -68 -23 -157 -35 -274 -35 -87 -1 -261 37 -292 63 -7 6 -13
8 -13 4 0 -10 -109 52 -170 97 -156 115 -260 272 -311 467 -16 63 -21 233 -8
305 20 117 63 222 133 325 35 52 158 180 174 180 6 0 12 4 14 9 6 17 120 80
197 110 82 32 116 40 201 48 30 3 56 6 58 8 5 4 142 -4 182 -11z"/>
<path d="M1450 8859 c-50 -10 -60 -13 -145 -55 -51 -24 -151 -111 -191 -165
-11 -14 -48 -88 -50 -99 0 -3 -3 -12 -6 -20 -25 -65 -27 -118 -28 -728 0 -715
-1 -699 66 -822 71 -131 228 -238 377 -256 66 -9 2592 -8 2630 0 15 3 38 8 52
11 57 12 163 73 218 125 58 55 120 150 137 211 21 72 23 140 23 744 1 629 1
630 -22 700 -31 94 -54 134 -126 207 -52 54 -124 99 -205 129 l-65 24 -1310 1
c-720 0 -1330 -3 -1355 -7z m2645 -422 l35 -36 -1 -603 c-1 -332 -4 -613 -7
-625 -4 -12 -20 -32 -37 -45 l-29 -23 -1259 0 c-828 0 -1270 3 -1290 10 -17 5
-41 24 -52 41 -21 31 -21 38 -21 635 l1 604 23 33 c13 17 26 32 30 33 17 2 56
10 58 12 1 1 567 2 1258 1 l1255 0 36 -37z"/>
<path d="M5568 8865 c-2 -2 -18 -7 -36 -10 -162 -28 -308 -167 -350 -331 -16
-65 -17 -204 -17 -2219 l0 -2150 24 -45 c34 -65 84 -99 155 -105 22 -2 41 -4
41 -5 0 -1 24 -2 53 -3 28 -1 52 1 52 5 0 4 13 3 29 -2 16 -4 32 -6 35 -3 7 7
105 7 112 0 3 -3 17 -2 30 3 14 6 26 6 29 0 3 -5 15 -6 29 0 12 4 29 4 36 0 8
-5 21 -5 31 0 9 5 19 7 22 4 8 -8 127 -10 127 -2 0 4 13 3 29 -2 16 -4 32 -6
35 -3 3 3 27 5 53 4 98 -3 174 -1 183 4 5 3 11 1 15 -4 3 -7 15 -7 30 -1 15 6
27 6 30 -1 4 -5 10 -7 14 -5 8 5 37 6 154 6 37 0 72 2 77 5 6 4 10 2 10 -4 0
-6 11 -6 30 -1 17 5 30 6 30 2 0 -4 25 -7 55 -7 30 0 55 3 55 7 0 4 13 3 29
-2 16 -4 32 -6 35 -3 7 7 105 7 112 0 3 -3 17 -2 30 3 14 6 26 6 29 0 3 -5 15
-6 28 -1 12 5 32 5 44 0 13 -5 25 -4 28 1 3 5 15 6 28 1 23 -9 107 7 142 26
35 20 74 67 88 108 11 33 13 408 12 2200 -2 2150 -2 2160 -22 2216 -42 113
-119 203 -221 257 -114 60 -105 60 -866 60 -382 0 -696 -2 -698 -3z m1384
-415 c17 -21 18 -53 16 -684 l-3 -661 -697 0 c-617 0 -698 1 -699 15 0 8 0
307 -1 663 0 596 2 650 17 667 9 10 27 20 39 22 11 2 311 3 665 2 l644 -1 19
-23z m16 -2897 l-3 -1158 -697 -1 c-384 0 -698 2 -699 5 0 8 0 2249 0 2284 l1
27 700 0 700 0 -2 -1157z"/>
</g>
</svg>
